<svg xml:space="preserve" viewBox="0 0 535 740" version="1.1"
     xmlns="http://www.w3.org/2000/svg" width="535" height="740" style="max-height: 500px">
  <defs>
    <!-- Global diagonal gradient -->
    <linearGradient id="globalGradient" x1="0" y1="0" x2="535" y2="740" gradientUnits="userSpaceOnUse">
  	<stop offset="0%" stop-color="#ff0057" />
  	<stop offset="100%" stop-color="#bd00ff" />
    </linearGradient>

    <!-- Mask made from your shapes (white = visible) -->
    <mask id="shapesMask" maskUnits="userSpaceOnUse">
      <!-- Transparent background -->
      <rect x="0" y="0" width="100%" height="100%" fill="black"/>
      <!-- Your shapes in solid white (no gradient here) -->
      <g transform="matrix(0.9091 0 0 0.9091 348.8775 369.8559)">
        <g>
          <g transform="matrix(1 0 0 1 -450 -450)">
            <rect x="-50" y="-50" width="100" height="100" fill="white" />
          </g>
          <g transform="matrix(9.0252 0 0 9.0252 -89.3494 -224.395)">
            <path fill="white" d="M 45 40.375 L 45 40.375 c -9.415 0 -17.118 -7.703 -17.118 -17.118 v -6.139 C 27.882 7.703 35.585 0 45 0 h 0 c 9.415 0 17.118 7.703 17.118 17.118 v 6.139 C 62.118 32.672 54.415 40.375 45 40.375 z"
                  transform="translate(-45, -20.1875)"/>
          </g>
          <g transform="matrix(9.0252 0 0 9.0252 -89.35 121.0966)">
            <path fill="white" d="M 47.875 53.673 l -0.639 -3.615 l 1.117 -1.935 l 2.075 -3.595 c 0.568 -0.984 -0.142 -2.214 -1.278 -2.214 H 45 h -4.151 c -1.136 0 -1.847 1.23 -1.278 2.214 l 2.075 3.595 l 1.117 1.935 l -0.639 3.615 l -2.875 16.264 L 45 74.623 l 5.751 -4.686 L 47.875 53.673 z"
                  transform="translate(-45, -58.4685)"/>
          </g>
          <g transform="matrix(9.0252 0 0 9.0252 -89.3488 192.9918)">
            <path fill="white" d="M 55.463 42.869 l -4.905 14.353 L 45 73.487 l -5.558 -16.264 l -4.905 -14.353 c -12.539 2.276 -22.128 13.307 -22.128 26.477 v 17.707 c 0 1.621 1.326 2.946 2.946 2.946 h 59.29 c 1.621 0 2.946 -1.326 2.946 -2.946 V 69.346 C 77.591 56.177 68.002 45.146 55.463 42.869 z"
                  transform="translate(-45, -66.4345)"/>
          </g>
        </g>
      </g>
    </mask>
  </defs>

  <!-- Transparent background -->
  <rect x="0" y="0" width="100%" height="100%" fill="none"/>

  <!-- One global gradient rectangle, visible only where the shapes are -->
  <rect x="0" y="0" width="100%" height="100%" fill="url(#globalGradient)" mask="url(#shapesMask)"/>
</svg>