<svg xmlns="http://www.w3.org/2000/svg" version="1.1"
     width="256" height="256" viewBox="0 0 256 256" xml:space="preserve">
  <defs>
    <!-- Global diagonal gradient -->
    <linearGradient id="globalGradient" x1="0" y1="0" x2="256" y2="256" gradientUnits="userSpaceOnUse">
      <stop offset="0%" stop-color="#ff0057" />
      <stop offset="100%" stop-color="#bd00ff" />
    </linearGradient>

    <!-- Mask from shapes -->
    <mask id="shapesMask" maskUnits="userSpaceOnUse">
      <!-- Transparent background -->
      <rect x="0" y="0" width="100%" height="100%" fill="black"/>
      <!-- Shapes in white -->
      <g transform="translate(1.4066 1.4066) scale(2.81 2.81)">
        <path fill="white" d="M 85.219 13.983 H 4.781 C 2.145 13.983 0 16.128 0 18.765 v 52.471 c 0 2.637 2.145 4.781 4.781 4.781 h 80.438 c 2.637 0 4.781 -2.145 4.781 -4.781 V 18.765 C 90 16.128 87.855 13.983 85.219 13.983 z M 4.781 15.983 h 80.438 c 1.533 0 2.781 1.248 2.781 2.781 v 39.252 H 2 V 18.765 C 2 17.231 3.248 15.983 4.781 15.983 z M 85.219 74.017 H 4.781 C 3.248 74.017 2 72.769 2 71.235 v -3.219 h 70.544 c 0.553 0 1 -0.447 1 -1 s -0.447 -1 -1 -1 H 2 v -6 h 86 v 11.219 C 88 72.769 86.752 74.017 85.219 74.017 z"/>
        <path fill="white" d="M 20.934 48.478 c 4.959 0 9.468 -2.991 11.435 -7.512 h 4.71 c 0.552 0 1 -0.448 1 -1 V 38.58 h 1.81 v 1.386 c 0 0.552 0.448 1 1 1 h 4.32 c 0.358 0 0.689 -0.191 0.868 -0.502 l 0.729 -1.271 l 0.822 1.305 c 0.183 0.291 0.502 0.467 0.846 0.467 h 4.155 c 0.33 0 0.64 -0.163 0.825 -0.436 l 1.513 -2.213 l 1.687 2.249 c 0.188 0.252 0.485 0.4 0.8 0.4 h 3.378 c 0.273 0 0.535 -0.112 0.725 -0.311 l 3.713 -3.899 c 0.367 -0.386 0.367 -0.993 0 -1.379 l -3.713 -3.899 c -0.189 -0.198 -0.451 -0.311 -0.725 -0.311 H 32.426 c -1.935 -4.601 -6.466 -7.645 -11.492 -7.645 c -6.88 0 -12.478 5.597 -12.478 12.478 S 14.053 48.478 20.934 48.478 z M 20.934 25.522 c 4.42 0 8.384 2.805 9.865 6.979 c 0.142 0.399 0.519 0.666 0.942 0.666 h 28.661 l 2.761 2.899 l -2.761 2.899 h -2.449 L 55.729 36 c -0.192 -0.257 -0.458 -0.397 -0.822 -0.4 c -0.322 0.007 -0.621 0.169 -0.803 0.436 l -2.002 2.93 h -3.076 l -1.414 -2.245 c -0.187 -0.297 -0.516 -0.463 -0.866 -0.467 c -0.351 0.007 -0.672 0.198 -0.847 0.502 l -1.269 2.21 h -2.741 V 37.58 c 0 -0.552 -0.448 -1 -1 -1 h -3.81 c -0.552 0 -1 0.448 -1 1 v 1.386 h -4.386 c -0.419 0 -0.793 0.261 -0.938 0.654 c -1.513 4.102 -5.46 6.858 -9.821 6.858 c -5.777 0 -10.478 -4.7 -10.478 -10.478 S 15.156 25.522 20.934 25.522 z"/>
        <path fill="white" d="M 20.934 42.57 c 3.623 0 6.57 -2.947 6.57 -6.57 s -2.947 -6.57 -6.57 -6.57 s -6.57 2.947 -6.57 6.57 S 17.311 42.57 20.934 42.57 z M 20.934 31.43 c 2.52 0 4.57 2.05 4.57 4.57 s -2.05 4.57 -4.57 4.57 s -4.57 -2.05 -4.57 -4.57 S 18.414 31.43 20.934 31.43 z"/>
        <path fill="white" d="M 74.859 34.406 h 7.143 c 0.553 0 1 -0.448 1 -1 v -7.142 c 0 -0.552 -0.447 -1 -1 -1 h -7.143 c -0.553 0 -1 0.448 -1 1 v 7.142 C 73.859 33.958 74.307 34.406 74.859 34.406 z M 75.859 27.264 h 5.143 v 5.142 h -5.143 V 27.264 z"/>
        <path fill="white" d="M 74.859 47.406 h 7.143 c 0.553 0 1 -0.447 1 -1 v -7.142 c 0 -0.552 -0.447 -1 -1 -1 h -7.143 c -0.553 0 -1 0.448 -1 1 v 7.142 C 73.859 46.959 74.307 47.406 74.859 47.406 z M 75.859 40.264 h 5.143 v 5.142 h -5.143 V 40.264 z"/>
      </g>

      <!-- Big cross lines across the card -->
      <line x1="32" y1="32" x2="224" y2="224" stroke="white" stroke-width="20" stroke-linecap="round"/>
      <line x1="224" y1="32" x2="32" y2="224" stroke="white" stroke-width="20" stroke-linecap="round"/>
    </mask>
  </defs>

  <!-- Transparent background -->
  <rect x="0" y="0" width="100%" height="100%" fill="none"/>

  <!-- Gradient rectangle masked by shapes + cross -->
  <rect x="0" y="0" width="100%" height="100%" fill="url(#globalGradient)" mask="url(#shapesMask)"/>
</svg>